<svg width="130" height="90" viewBox="0 0 130 90" fill="none" xmlns="http://www.w3.org/2000/svg">
<path d="M26.1332 15.7329H66.3192V6.63798L69.9725 3H89.4566L99.8076 13.3076V35.1355L89.4566 45.9373H69.9725L66.3192 39.9862V32.7102H48.6617L43.7907 27.8596L38.9197 32.7102L34.0486 27.8596L29.1776 32.7102H24.9154L17 24.8279L26.1332 15.7329Z" fill="url(#paint0_linear_938_3221)"/>
<path d="M66.3192 15.7329H26.1332L17 24.8279L24.9154 32.7102H29.1776L34.0486 27.8596L38.9197 32.7102L43.7907 27.8596L48.6617 32.7102H66.3192M66.3192 15.7329V32.7102M66.3192 15.7329V6.63798L69.9725 3H89.4566L99.8076 13.3076V35.1355L89.4566 45.9373H69.9725L66.3192 39.9862V32.7102" stroke="#DB0E0E" stroke-width="3"/>
<path d="M35.4004 21.4019H61.4694" stroke="#696969" stroke-width="3"/>
<path d="M78.4648 36.1912V12.8345H85.0211L90.7578 18.2844V31.5198L85.8406 36.1912H78.4648Z" fill="url(#paint1_linear_938_3221)"/>
<path d="M78.4648 36.1912V12.8345H85.0211L90.7578 18.2844V31.5198L85.8406 36.1912H78.4648Z" fill="url(#paint2_linear_938_3221)"/>
<path d="M78.4648 36.1912V12.8345H85.0211L90.7578 18.2844V31.5198L85.8406 36.1912H78.4648Z" stroke="#696969" stroke-width="3"/>
<path d="M48.2019 51.3223L17.6582 68.9572L30.6927 86.5922L43.7273 79.6915L76.6969 86.5922L113.5 65.8903V57.4562L106.6 55.156L81.5385 67.9061L79.7639 64.3568L48.2019 51.3223Z" fill="url(#paint3_linear_938_3221)"/>
<path d="M48.2019 51.3223L17.6582 68.9572L30.6927 86.5922L43.7273 79.6915L76.6969 86.5922L113.5 65.8903V57.4562L106.6 55.156L81.5385 67.9061L79.7639 64.3568L48.2019 51.3223Z" fill="url(#paint4_linear_938_3221)"/>
<path d="M54.4616 65.8903L70.5631 72.7909H79.7639L82.0641 68.9572L79.7639 64.3568L48.2019 51.3223L17.6582 68.9572L30.6927 86.5922L43.7273 79.6915L76.6969 86.5922L113.5 65.8903V57.4562L106.6 55.156L81.5385 67.9061" stroke="#696969" stroke-width="3"/>
<defs>
<linearGradient id="paint0_linear_938_3221" x1="72.9331" y1="53.4013" x2="43.2941" y2="5.26014" gradientUnits="userSpaceOnUse">
<stop stop-color="#FEFEFE"/>
<stop offset="1" stop-color="#FFA6A6"/>
</linearGradient>
<linearGradient id="paint1_linear_938_3221" x1="88.0104" y1="44.4184" x2="79.4198" y2="14.4367" gradientUnits="userSpaceOnUse">
<stop offset="0.128367" stop-color="#1A1818"/>
<stop offset="1" stop-color="#999999"/>
</linearGradient>
<linearGradient id="paint2_linear_938_3221" x1="88.0104" y1="44.4184" x2="79.4198" y2="14.4367" gradientUnits="userSpaceOnUse">
<stop offset="0.128367" stop-color="white"/>
<stop offset="1" stop-color="#999999"/>
</linearGradient>
<linearGradient id="paint3_linear_938_3221" x1="92.0804" y1="99.0157" x2="89.3699" y2="50.1751" gradientUnits="userSpaceOnUse">
<stop offset="0.128367" stop-color="#1A1818"/>
<stop offset="1" stop-color="#999999"/>
</linearGradient>
<linearGradient id="paint4_linear_938_3221" x1="92.0804" y1="99.0157" x2="89.3699" y2="50.1751" gradientUnits="userSpaceOnUse">
<stop offset="0.128367" stop-color="white"/>
<stop offset="1" stop-color="#999999"/>
</linearGradient>
</defs>
</svg>
