<svg width="130" height="90" viewBox="0 0 130 90" fill="none" xmlns="http://www.w3.org/2000/svg">
<path d="M47.5437 49L17 66.635L30.0345 84.2699L43.0691 77.3693L76.0387 84.2699L112.842 63.568V55.1339L105.941 52.8337L80.8803 65.5838L79.1057 62.0345L47.5437 49Z" fill="url(#paint0_linear_853_3201)"/>
<path d="M53.8034 63.568L69.9049 70.4686H79.1057L81.4059 66.635L79.1057 62.0345L47.5437 49L17 66.635L30.0345 84.2699L43.0691 77.3693L76.0387 84.2699L112.842 63.568V55.1339L105.941 52.8337L80.8803 65.5838" stroke="url(#paint1_linear_853_3201)" stroke-width="3"/>
<path d="M27.4722 12.4722L42.4165 5.00006H57.3609H72.3052L85.1146 12.4722L99.7921 14.0734L106.997 14.6071L110.734 17.2758V19.4107V29.0178L106.997 31.1527H81.9123H57.3609H41.3491H29.6071L22.6686 29.2935L20 28.5785V18.877V15.1409L27.4722 12.4722Z" fill="url(#paint2_linear_853_3201)"/>
<path d="M27.4722 12.4722L42.4165 5.00006H57.3609M27.4722 12.4722L20 15.1409V18.877V28.5785L22.6686 29.2935L29.6071 31.1527H41.3491H57.3609M27.4722 12.4722H85.1146M85.1146 12.4722L72.3052 5.00006H57.3609M85.1146 12.4722L81.9123 31.1527M85.1146 12.4722L99.7921 14.0734L106.997 14.6071L110.734 17.2758V19.4107V29.0178L106.997 31.1527H81.9123M57.3609 5.00006V31.1527M57.3609 31.1527H81.9123" stroke="url(#paint3_linear_853_3201)" stroke-width="3"/>
<circle cx="95.2558" cy="31.1526" r="6.93845" fill="url(#paint4_linear_853_3201)" stroke="url(#paint5_linear_853_3201)" stroke-width="3"/>
<circle cx="39.9384" cy="30.9384" r="6.93845" fill="url(#paint6_linear_853_3201)" stroke="url(#paint7_linear_853_3201)" stroke-width="3"/>
<defs>
<linearGradient id="paint0_linear_853_3201" x1="84" y1="81.5" x2="85.7913" y2="34.0298" gradientUnits="userSpaceOnUse">
<stop stop-color="#999999"/>
<stop offset="0.871633" stop-color="#1A1818"/>
</linearGradient>
<linearGradient id="paint1_linear_853_3201" x1="64.9211" y1="49.6743" x2="64.9211" y2="84.2699" gradientUnits="userSpaceOnUse">
<stop stop-color="#1C1C1C"/>
<stop offset="1" stop-color="#828282"/>
</linearGradient>
<linearGradient id="paint2_linear_853_3201" x1="81.2867" y1="35.6989" x2="68.8987" y2="-0.498179" gradientUnits="userSpaceOnUse">
<stop stop-color="#FEFEFE"/>
<stop offset="1" stop-color="#FFA6A6"/>
</linearGradient>
<linearGradient id="paint3_linear_853_3201" x1="65.3668" y1="5.00006" x2="65.3668" y2="31.1527" gradientUnits="userSpaceOnUse">
<stop stop-color="#DB0E0E"/>
<stop offset="1" stop-color="#ECA0A0"/>
</linearGradient>
<linearGradient id="paint4_linear_853_3201" x1="97.6907" y1="40.5033" x2="87.1188" y2="31.5997" gradientUnits="userSpaceOnUse">
<stop stop-color="#FEFEFE"/>
<stop offset="1" stop-color="#FFA6A6"/>
</linearGradient>
<linearGradient id="paint5_linear_853_3201" x1="95.2558" y1="24.2141" x2="95.2558" y2="38.091" gradientUnits="userSpaceOnUse">
<stop stop-color="#DB0E0E"/>
<stop offset="1" stop-color="#ECA0A0"/>
</linearGradient>
<linearGradient id="paint6_linear_853_3201" x1="42.3733" y1="40.2892" x2="31.8014" y2="31.3855" gradientUnits="userSpaceOnUse">
<stop stop-color="#FEFEFE"/>
<stop offset="1" stop-color="#FFA6A6"/>
</linearGradient>
<linearGradient id="paint7_linear_853_3201" x1="39.9384" y1="24" x2="39.9384" y2="37.8769" gradientUnits="userSpaceOnUse">
<stop stop-color="#DB0E0E"/>
<stop offset="1" stop-color="#ECA0A0"/>
</linearGradient>
</defs>
</svg>
