<svg width="30" height="30" viewBox="0 0 30 30" fill="none" xmlns="http://www.w3.org/2000/svg">
<path d="M29.916 8.80711C29.844 7.21127 29.586 6.11938 29.2199 5.16548C28.8358 4.18158 28.3257 3.34166 27.4916 2.51375C26.6574 1.68583 25.8232 1.16388 24.839 0.785921C23.8848 0.413958 22.7926 0.161984 21.1963 0.0899909C19.594 0.0179982 19.0839 0 15.0151 0C10.9403 0 10.4301 0.0179982 8.83383 0.0899909C7.23751 0.161984 6.14529 0.419958 5.1911 0.785921C4.2009 1.16988 3.36073 1.67983 2.53257 2.51375C1.7044 3.34766 1.1823 4.18158 0.804224 5.16548C0.43815 6.11938 0.180099 7.21127 0.108084 8.80711C0.03607 10.4089 0.0180664 10.9189 0.0180664 14.9865C0.0180664 19.0601 0.03607 19.57 0.108084 21.1659C0.180099 22.7617 0.43815 23.8536 0.804224 24.8075C1.1883 25.7914 1.6984 26.6313 2.53257 27.4592C3.36073 28.2931 4.2009 28.8091 5.1851 29.1871C6.13929 29.559 7.23151 29.811 8.82783 29.883C10.4301 29.955 10.9403 29.973 15.0091 29.973C19.0839 29.973 19.594 29.955 21.1903 29.883C22.7866 29.811 23.8788 29.553 24.833 29.1871C25.8172 28.8031 26.6574 28.2931 27.4856 27.4592C28.3137 26.6253 28.8358 25.7914 29.2139 24.8075C29.586 23.8536 29.838 22.7617 29.91 21.1659C29.9821 19.564 30.0001 19.0541 30.0001 14.9865C30.0001 10.9189 29.9881 10.4029 29.916 8.80711ZM27.2215 21.0459C27.1555 22.5097 26.9094 23.3076 26.7054 23.8296C26.4354 24.5255 26.1053 25.0295 25.5772 25.5574C25.0491 26.0854 24.551 26.4033 23.8488 26.6853C23.3207 26.8893 22.5226 27.1353 21.0643 27.2013C19.486 27.2732 19.0119 27.2912 15.0031 27.2912C10.9943 27.2912 10.5202 27.2732 8.94185 27.2013C7.47756 27.1353 6.6794 26.8893 6.15729 26.6853C5.46115 26.4153 4.95705 26.0854 4.42895 25.5574C3.90084 25.0295 3.58278 24.5315 3.30072 23.8296C3.09668 23.3016 2.85063 22.5037 2.78462 21.0459C2.71261 19.468 2.6946 18.9941 2.6946 14.9865C2.6946 10.9789 2.71261 10.5049 2.78462 8.9271C2.85063 7.46325 3.09668 6.66533 3.30072 6.14338C3.57078 5.44745 3.90084 4.9435 4.42895 4.41555C4.95705 3.88761 5.45515 3.56964 6.15729 3.28767C6.6854 3.08369 7.48356 2.83771 8.94185 2.77172C10.5202 2.69973 10.9943 2.68173 15.0031 2.68173C19.0119 2.68173 19.486 2.69973 21.0643 2.77172C22.5286 2.83771 23.3267 3.08369 23.8488 3.28767C24.545 3.55764 25.0491 3.88761 25.5772 4.41555C26.1053 4.9435 26.4233 5.44145 26.7054 6.14338C26.9094 6.67133 27.1555 7.46925 27.2215 8.9271C27.2935 10.5049 27.3115 10.9789 27.3115 14.9865C27.3115 18.9941 27.2875 19.468 27.2215 21.0459Z" fill="#FF1818"/>
<path d="M15.0031 7.2832C10.7423 7.2832 7.29761 10.7329 7.29761 14.9864C7.29761 19.246 10.7483 22.6896 15.0031 22.6896C19.258 22.6896 22.7087 19.234 22.7087 14.9864C22.7087 10.7269 19.264 7.2832 15.0031 7.2832ZM15.0031 19.9839C12.2426 19.9839 10.0041 17.7461 10.0041 14.9864C10.0041 12.2267 12.2426 9.98893 15.0031 9.98893C17.7637 9.98893 20.0021 12.2267 20.0021 14.9864C20.0021 17.7461 17.7637 19.9839 15.0031 19.9839Z" fill="white"/>
<path d="M23.0086 8.78323C24.0029 8.78323 24.809 7.97742 24.809 6.98341C24.809 5.9894 24.0029 5.18359 23.0086 5.18359C22.0143 5.18359 21.2083 5.9894 21.2083 6.98341C21.2083 7.97742 22.0143 8.78323 23.0086 8.78323Z" fill="white"/>
<path d="M0 14.9865C0 19.0601 0.0180036 19.57 0.090018 21.1659C0.162032 22.7617 0.420084 23.8536 0.786157 24.8075C1.17023 25.7914 1.68034 26.6313 2.5145 27.4592C3.34267 28.2871 4.18284 28.8091 5.16703 29.1871C6.12122 29.559 7.21344 29.811 8.80976 29.883C10.4121 29.955 10.9222 29.973 14.991 29.973C19.0658 29.973 19.5759 29.955 21.1722 29.883C22.7686 29.811 23.8608 29.553 24.815 29.1871C25.7992 28.8031 26.6393 28.2931 27.4675 27.4592C28.2957 26.6313 28.8178 25.7914 29.1958 24.8075C29.5679 23.8536 29.82 22.7617 29.892 21.1659C29.964 19.564 29.982 19.0541 29.982 14.9865C29.982 10.9129 29.964 10.4029 29.892 8.80711C29.82 7.21127 29.5619 6.11938 29.1958 5.16548C28.8118 4.18158 28.3017 3.34166 27.4675 2.51375C26.6453 1.67983 25.8052 1.16388 24.821 0.785921C23.8668 0.413958 22.7746 0.161984 21.1782 0.0899909C19.5759 0.0179982 19.0658 0 14.997 0C10.9222 0 10.4121 0.0179982 8.81576 0.0899909C7.21944 0.161984 6.12723 0.419958 5.17303 0.785921C4.18884 1.16988 3.34867 1.67983 2.5205 2.51375C1.69234 3.34766 1.17023 4.18158 0.792158 5.16548C0.420084 6.11938 0.162032 7.21127 0.090018 8.80711C0.0180036 10.4029 0 10.9129 0 14.9865ZM2.70654 14.9865C2.70654 10.9849 2.72454 10.5049 2.79656 8.9271C2.86257 7.46325 3.10862 6.66533 3.31266 6.14338C3.58272 5.44745 3.91278 4.9435 4.44089 4.41555C4.96899 3.88761 5.46709 3.56964 6.16923 3.28767C6.69734 3.08369 7.4955 2.83771 8.95379 2.77172C10.5321 2.69973 11.0062 2.68173 15.015 2.68173C19.0238 2.68173 19.4979 2.69973 21.0762 2.77172C22.5405 2.83771 23.3387 3.08369 23.8608 3.28767C24.5569 3.55764 25.061 3.88761 25.5891 4.41555C26.1172 4.9435 26.4353 5.44145 26.7173 6.14338C26.9214 6.67133 27.1674 7.46925 27.2334 8.9271C27.3055 10.5049 27.3235 10.9789 27.3235 14.9865C27.3235 18.9941 27.3055 19.468 27.2334 21.0459C27.1674 22.5097 26.9214 23.3076 26.7173 23.8296C26.4473 24.5255 26.1172 25.0295 25.5891 25.5574C25.061 26.0854 24.5629 26.4033 23.8608 26.6853C23.3327 26.8893 22.5345 27.1353 21.0762 27.2013C19.4979 27.2732 19.0238 27.2912 15.015 27.2912C11.0062 27.2912 10.5321 27.2732 8.95379 27.2013C7.4895 27.1353 6.69134 26.8893 6.16923 26.6853C5.47309 26.4153 4.96899 26.0854 4.44089 25.5574C3.91278 25.0295 3.59472 24.5315 3.31266 23.8296C3.10862 23.3016 2.86257 22.5037 2.79656 21.0459C2.71854 19.468 2.70654 18.9881 2.70654 14.9865Z" fill="#FF1818"/>
</svg>
