<svg width="40" height="40" viewBox="0 0 40 40" fill="none" xmlns="http://www.w3.org/2000/svg">
<path d="M39.8874 11.7534C39.7914 9.6237 39.4473 8.16653 38.9592 6.89352C38.4471 5.58047 37.767 4.45957 36.6548 3.35468C35.5425 2.2498 34.4303 1.55324 33.1181 1.04884C31.8458 0.552442 30.3895 0.216173 28.2611 0.120096C26.1247 0.0240192 25.4445 0 20.0194 0C14.5864 0 13.9062 0.0240192 11.7778 0.120096C9.64936 0.216173 8.19307 0.560448 6.92082 1.04884C5.60055 1.56125 4.48033 2.24179 3.37611 3.35468C2.27189 4.46757 1.57575 5.58047 1.07165 6.89352C0.58355 8.16653 0.239481 9.6237 0.143462 11.7534C0.0474423 13.8911 0.0234375 14.5717 0.0234375 20C0.0234375 25.4364 0.0474423 26.1169 0.143462 28.2466C0.239481 30.3763 0.58355 31.8335 1.07165 33.1065C1.58375 34.4195 2.26389 35.5404 3.37611 36.6453C4.48033 37.7582 5.60055 38.4468 6.91282 38.9512C8.18507 39.4476 9.64136 39.7838 11.7698 39.8799C13.9062 39.976 14.5864 40 20.0114 40C25.4445 40 26.1247 39.976 28.2531 39.8799C30.3815 39.7838 31.8378 39.4396 33.1101 38.9512C34.4223 38.4388 35.5425 37.7582 36.6468 36.6453C37.751 35.5324 38.4471 34.4195 38.9512 33.1065C39.4473 31.8335 39.7834 30.3763 39.8794 28.2466C39.9754 26.1089 39.9994 25.4283 39.9994 20C39.9994 14.5717 39.9834 13.8831 39.8874 11.7534ZM36.2947 28.0865C36.2067 30.04 35.8786 31.1049 35.6066 31.8014C35.2465 32.7302 34.8064 33.4027 34.1023 34.1073C33.3981 34.8119 32.734 35.2362 31.7978 35.6125C31.0937 35.8847 30.0294 36.213 28.0851 36.301C25.9806 36.3971 25.3485 36.4211 20.0034 36.4211C14.6584 36.4211 14.0262 36.3971 11.9218 36.301C9.96943 36.213 8.90521 35.8847 8.20907 35.6125C7.28089 35.2522 6.60876 34.8119 5.90461 34.1073C5.20047 33.4027 4.77639 32.7382 4.40031 31.8014C4.12826 31.0969 3.80019 30.032 3.71218 28.0865C3.61616 25.9808 3.59215 25.3483 3.59215 20C3.59215 14.6517 3.61616 14.0192 3.71218 11.9135C3.80019 9.95997 4.12826 8.89512 4.40031 8.19856C4.76039 7.26982 5.20047 6.59728 5.90461 5.89272C6.60876 5.18815 7.27289 4.76381 8.20907 4.38751C8.91322 4.11529 9.97743 3.78703 11.9218 3.69896C14.0262 3.60288 14.6584 3.57886 20.0034 3.57886C25.3485 3.57886 25.9806 3.60288 28.0851 3.69896C30.0374 3.78703 31.1017 4.11529 31.7978 4.38751C32.726 4.7478 33.3981 5.18815 34.1023 5.89272C34.8064 6.59728 35.2305 7.26181 35.6066 8.19856C35.8786 8.90312 36.2067 9.96798 36.2947 11.9135C36.3907 14.0192 36.4147 14.6517 36.4147 20C36.4147 25.3483 36.3827 25.9808 36.2947 28.0865Z" fill="#DB0E0E"/>
<path d="M20.0045 9.71973C14.3234 9.71973 9.73047 14.3234 9.73047 20C9.73047 25.6845 14.3314 30.2802 20.0045 30.2802C25.6777 30.2802 30.2786 25.6685 30.2786 20C30.2786 14.3154 25.6857 9.71973 20.0045 9.71973ZM20.0045 26.6693C16.3238 26.6693 13.3392 23.6829 13.3392 20C13.3392 16.317 16.3238 13.3306 20.0045 13.3306C23.6853 13.3306 26.6699 16.317 26.6699 20C26.6699 23.6829 23.6853 26.6693 20.0045 26.6693Z" fill="#1C1C1C"/>
<path d="M30.6778 11.7213C32.0036 11.7213 33.0783 10.6459 33.0783 9.3194C33.0783 7.99286 32.0036 6.91748 30.6778 6.91748C29.3521 6.91748 28.2773 7.99286 28.2773 9.3194C28.2773 10.6459 29.3521 11.7213 30.6778 11.7213Z" fill="#1C1C1C"/>
<path d="M0 20C0 25.4364 0.0240048 26.1169 0.120024 28.2466C0.216043 30.3763 0.560112 31.8335 1.04821 33.1065C1.56031 34.4195 2.24045 35.5404 3.35267 36.6453C4.45689 37.7502 5.57712 38.4468 6.88938 38.9512C8.16163 39.4476 9.61792 39.7838 11.7464 39.8799C13.8828 39.976 14.5629 40 19.988 40C25.4211 40 26.1012 39.976 28.2296 39.8799C30.3581 39.7838 31.8144 39.4396 33.0866 38.9512C34.3989 38.4388 35.5191 37.7582 36.6233 36.6453C37.7275 35.5404 38.4237 34.4195 38.9278 33.1065C39.4239 31.8335 39.76 30.3763 39.856 28.2466C39.952 26.1089 39.976 25.4283 39.976 20C39.976 14.5637 39.952 13.8831 39.856 11.7534C39.76 9.6237 39.4159 8.16653 38.9278 6.89352C38.4157 5.58047 37.7356 4.45957 36.6233 3.35468C35.5271 2.24179 34.4069 1.55324 33.0946 1.04884C31.8224 0.552442 30.3661 0.216173 28.2376 0.120096C26.1012 0.0240192 25.4211 0 19.996 0C14.5629 0 13.8828 0.0240192 11.7544 0.120096C9.62593 0.216173 8.16963 0.560448 6.89738 1.04884C5.58512 1.56125 4.46489 2.24179 3.36067 3.35468C2.25645 4.46757 1.56031 5.58047 1.05621 6.89352C0.560112 8.16653 0.216043 9.6237 0.120024 11.7534C0.0240048 13.8831 0 14.5637 0 20ZM3.60872 20C3.60872 14.6597 3.63273 14.0192 3.72875 11.9135C3.81676 9.95997 4.14483 8.89512 4.41688 8.19856C4.77696 7.26982 5.21704 6.59728 5.92118 5.89272C6.62533 5.18815 7.28946 4.76381 8.22565 4.38751C8.92979 4.11529 9.994 3.78703 11.9384 3.69896C14.0428 3.60288 14.6749 3.57886 20.02 3.57886C25.3651 3.57886 25.9972 3.60288 28.1016 3.69896C30.054 3.78703 31.1182 4.11529 31.8144 4.38751C32.7426 4.7478 33.4147 5.18815 34.1188 5.89272C34.823 6.59728 35.2471 7.26181 35.6231 8.19856C35.8952 8.90312 36.2232 9.96798 36.3113 11.9135C36.4073 14.0192 36.4313 14.6517 36.4313 20C36.4313 25.3483 36.4073 25.9808 36.3113 28.0865C36.2232 30.04 35.8952 31.1049 35.6231 31.8014C35.2631 32.7302 34.823 33.4027 34.1188 34.1073C33.4147 34.8119 32.7506 35.2362 31.8144 35.6125C31.1102 35.8847 30.046 36.213 28.1016 36.301C25.9972 36.3971 25.3651 36.4211 20.02 36.4211C14.6749 36.4211 14.0428 36.3971 11.9384 36.301C9.986 36.213 8.92179 35.8847 8.22565 35.6125C7.29746 35.2522 6.62533 34.8119 5.92118 34.1073C5.21704 33.4027 4.79296 32.7382 4.41688 31.8014C4.14483 31.0969 3.81676 30.032 3.72875 28.0865C3.62473 25.9808 3.60872 25.3403 3.60872 20Z" fill="#DB0E0E"/>
</svg>
