<svg width="102" height="88" viewBox="0 0 102 88" fill="none" xmlns="http://www.w3.org/2000/svg">
<path d="M0 88V63.4219C0 55.974 1.26042 48.3542 3.78125 40.5625C6.30208 32.6562 9.68229 25.151 13.9219 18.0469C18.1615 10.9427 22.9167 4.92708 28.1875 0L49.1562 13.2344C45.6042 20.224 42.5104 27.7292 39.875 35.75C37.3542 43.6562 36.0938 52.8229 36.0938 63.25V88H0ZM52.7656 88V63.4219C52.7656 55.974 54.026 48.3542 56.5469 40.5625C59.0677 32.6562 62.4479 25.151 66.6875 18.0469C70.9271 10.9427 75.6823 4.92708 80.9531 0L101.922 13.2344C98.3698 20.224 95.276 27.7292 92.6406 35.75C90.1198 43.6562 88.8594 52.8229 88.8594 63.25V88H52.7656Z" fill="#DB0E0E"/>
</svg>
