<svg width="30" height="30" viewBox="0 0 30 30" fill="none" xmlns="http://www.w3.org/2000/svg">
<path d="M29.3821 7.78664C29.0361 6.50164 28.0229 5.48846 26.7379 5.1425C24.3903 4.5 14.9999 4.5 14.9999 4.5C14.9999 4.5 5.60953 4.5 3.26193 5.11779C2.00164 5.46375 0.963752 6.50164 0.61779 7.78664C0 10.1342 0 15.0024 0 15.0024C0 15.0024 0 19.8953 0.61779 22.2182C0.963752 23.5032 1.97693 24.5164 3.26193 24.8623C5.63424 25.5049 14.9999 25.5048 14.9999 25.5048C14.9999 25.5048 24.3903 25.5048 26.7379 24.8871C28.0229 24.5411 29.0361 23.5279 29.3821 22.2429C29.9999 19.8953 29.9999 15.0271 29.9999 15.0271C29.9999 15.0271 30.0246 10.1342 29.3821 7.78664Z" fill="#FF1818"/>
<path d="M12.0098 19.4999L19.8186 15.0024L12.0098 10.5049V19.4999Z" fill="white"/>
</svg>
