<svg width="50" height="50" viewBox="0 0 50 50" fill="none" xmlns="http://www.w3.org/2000/svg">
<path d="M17.8875 37.5001L25 44.6126L32.1125 37.5001H43.75C43.75 33.3334 43.75 35.6314 43.75 33.3334V4.1665C39.5833 4.16691 41.8812 4.16678 39.5833 4.16678H10.4167C8.11874 4.16678 10.4167 4.16665 6.24999 4.16676V33.3334C6.24999 35.6314 6.24976 33.3334 6.24976 37.5001H17.8875ZM10.4167 8.33345H39.5833V33.3334H30.3875L25 38.7209L19.6125 33.3334H10.4167V8.33345Z" fill="#1C1C1C"/>
<path d="M25.9979 15.0396L15.6292 25.3916V29.1396H19.3792L29.7437 18.7875L25.9979 15.0396ZM30.6208 10.4146L34.3708 14.1646L31.5167 17.0187L27.7667 13.2708L30.6208 10.4146Z" fill="#DB0E0E"/>
</svg>
