<svg width="50" height="50" viewBox="0 0 50 50" fill="none" xmlns="http://www.w3.org/2000/svg">
<rect x="10" y="9" width="30" height="20" fill="#DB0E0E"/>
<path d="M7.8125 6.25V43.75H10.9375V31.25H42.1875V6.25H7.8125ZM10.9375 9.375H15.625V14.0625H20.3125V9.375H25V14.0625H29.6875V9.375H34.375V14.0625H39.0625V18.75H34.375V23.4375H39.0625V28.125H34.375V23.4375H29.6875V28.125H25V23.4375H20.3125V28.125H15.625V23.4375H10.9375V18.75H15.625V14.0625H10.9375V9.375ZM15.625 18.75V23.4375H20.3125V18.75H15.625ZM20.3125 18.75H25V14.0625H20.3125V18.75ZM25 18.75V23.4375H29.6875V18.75H25ZM29.6875 18.75H34.375V14.0625H29.6875V18.75Z" fill="#1C1C1C"/>
</svg>
