<svg width="26" height="26" viewBox="0 0 26 26" fill="none" xmlns="http://www.w3.org/2000/svg">
<path d="M7.82031 14.0782H14.0767V15.6423H7.82031V14.0782ZM7.82031 10.168H17.205V11.7321H7.82031V10.168ZM7.82031 17.9885H11.7306V19.5526H7.82031V17.9885Z" fill="white"/>
<path d="M19.5503 3.90866H17.2041V3.12661C17.2041 2.71178 17.0393 2.31394 16.746 2.02062C16.4526 1.72729 16.0548 1.5625 15.64 1.5625H9.38356C8.96873 1.5625 8.57089 1.72729 8.27757 2.02062C7.98424 2.31394 7.81945 2.71178 7.81945 3.12661V3.90866H5.47329C5.05846 3.90866 4.66062 4.07345 4.3673 4.36678C4.07397 4.6601 3.90918 5.05794 3.90918 5.47277V21.8959C3.90918 22.3107 4.07397 22.7086 4.3673 23.0019C4.66062 23.2952 5.05846 23.46 5.47329 23.46H19.5503C19.9651 23.46 20.3629 23.2952 20.6562 23.0019C20.9496 22.7086 21.1144 22.3107 21.1144 21.8959V5.47277C21.1144 5.05794 20.9496 4.6601 20.6562 4.36678C20.3629 4.07345 19.9651 3.90866 19.5503 3.90866ZM9.38356 3.12661H15.64V6.25482H9.38356V3.12661ZM19.5503 21.8959H5.47329V5.47277H7.81945V7.81893H17.2041V5.47277H19.5503V21.8959Z" fill="white"/>
</svg>
