<svg width="130" height="95" viewBox="0 0 130 95" fill="none" xmlns="http://www.w3.org/2000/svg">
<path d="M110 47.5C110 72.629 89.629 93 64.5 93C39.371 93 19 72.629 19 47.5C19 22.371 39.371 2 64.5 2C76.234 2 86.9305 6.44176 95 13.7356C104.212 22.062 110 34.105 110 47.5Z" fill="url(#paint0_linear_938_3221)"/>
<path d="M95 13.7356C86.9305 6.44176 76.234 2 64.5 2C39.371 2 19 22.371 19 47.5C19 72.629 39.371 93 64.5 93C89.629 93 110 72.629 110 47.5C110 34.105 104.212 22.062 95 13.7356ZM95 13.7356L29.7356 79" stroke="#DB0E0E" stroke-width="3"/>
<path d="M19.0323 38.0323L37.0968 29H55.1613H73.2258L88.7097 38.0323L106.452 39.9677L115.161 40.6129L119.677 43.8387V46.4194V58.0323L115.161 60.6129H84.8387H55.1613H35.8065H21.6129L13.2258 58.3656L10 57.5012V45.7742V41.2581L19.0323 38.0323Z" fill="url(#paint1_linear_938_3221)"/>
<path d="M19.0323 38.0323L37.0968 29M19.0323 38.0323L10 41.2581M19.0323 38.0323H32.5807M37.0968 29H55.1613M37.0968 29L32.5807 38.0323M73.2258 29L88.7097 38.0323M73.2258 29L77.0968 38.0323M73.2258 29H55.1613M88.7097 38.0323H77.0968M88.7097 38.0323L84.8387 60.6129M88.7097 38.0323L106.452 39.9677M10 41.2581V45.7742M10 41.2581H20.3226L20.9677 45.7742H10M77.0968 38.0323H32.5807M55.1613 29V60.6129M55.1613 60.6129H84.8387M55.1613 60.6129H35.8065H21.6129L13.2258 58.3656L10 57.5012V45.7742M84.8387 60.6129H115.161L119.677 58.0323V46.4194M61.6129 43.8387H68.0645M119.677 46.4194V43.8387L115.161 40.6129L106.452 39.9677M119.677 46.4194L108.065 45.129L106.452 39.9677" stroke="#696969" stroke-width="3"/>
<circle cx="100.967" cy="60.6127" r="8.3871" fill="url(#paint2_linear_938_3221)"/>
<circle cx="100.967" cy="60.6127" r="8.3871" fill="url(#paint3_linear_938_3221)"/>
<circle cx="100.967" cy="60.6127" r="8.3871" stroke="#696969" stroke-width="3"/>
<circle cx="33.8715" cy="60.6127" r="8.3871" fill="url(#paint4_linear_938_3221)"/>
<circle cx="33.8715" cy="60.6127" r="8.3871" fill="url(#paint5_linear_938_3221)"/>
<circle cx="33.8715" cy="60.6127" r="8.3871" stroke="#696969" stroke-width="3"/>
<defs>
<linearGradient id="paint0_linear_938_3221" x1="80.4667" y1="108.819" x2="11.1401" y2="50.432" gradientUnits="userSpaceOnUse">
<stop stop-color="#FEFEFE"/>
<stop offset="1" stop-color="#FFA6A6"/>
</linearGradient>
<linearGradient id="paint1_linear_938_3221" x1="95.1654" y1="71.7483" x2="93.2603" y2="27.9198" gradientUnits="userSpaceOnUse">
<stop offset="0.128367" stop-color="white"/>
<stop offset="1" stop-color="#999999"/>
</linearGradient>
<linearGradient id="paint2_linear_938_3221" x1="105.605" y1="74.9084" x2="102.17" y2="52.1266" gradientUnits="userSpaceOnUse">
<stop offset="0.128367" stop-color="#1A1818"/>
<stop offset="1" stop-color="#999999"/>
</linearGradient>
<linearGradient id="paint3_linear_938_3221" x1="105.605" y1="74.9084" x2="102.17" y2="52.1266" gradientUnits="userSpaceOnUse">
<stop offset="0.128367" stop-color="white"/>
<stop offset="1" stop-color="#999999"/>
</linearGradient>
<linearGradient id="paint4_linear_938_3221" x1="38.5097" y1="74.9084" x2="35.0741" y2="52.1266" gradientUnits="userSpaceOnUse">
<stop offset="0.128367" stop-color="#1A1818"/>
<stop offset="1" stop-color="#999999"/>
</linearGradient>
<linearGradient id="paint5_linear_938_3221" x1="38.5097" y1="74.9084" x2="35.0741" y2="52.1266" gradientUnits="userSpaceOnUse">
<stop offset="0.128367" stop-color="white"/>
<stop offset="1" stop-color="#999999"/>
</linearGradient>
</defs>
</svg>
