<svg width="130" height="90" viewBox="0 0 130 90" fill="none" xmlns="http://www.w3.org/2000/svg">
<path d="M28.7352 27.5692L21.2157 37.3445H46.526H71.8363L64.3169 27.5692H46.6841H28.7352Z" fill="url(#paint0_linear_853_3201)"/>
<path d="M76.5961 76.5V68.1743H62.3091V76.5H76.5961Z" fill="url(#paint1_linear_853_3201)"/>
<path d="M16.456 68.1743V76.5H30.7429V68.1743H16.456Z" fill="url(#paint2_linear_853_3201)"/>
<path d="M11.1846 44.864V57.6471V65.9185L14.9443 68.1743H16.456H30.7429H46.3695H62.3091H76.5961H78.1077L81.8675 65.9185V57.6471V44.864L71.8363 37.3445H46.526H21.2157L11.1846 44.864Z" fill="url(#paint3_linear_853_3201)"/>
<path d="M21.2157 37.3445L28.7352 27.5692H46.6841H64.3169L71.8363 37.3445M21.2157 37.3445H46.526H71.8363M21.2157 37.3445L11.1846 44.864M11.1846 44.864V57.6471V65.9185L14.9443 68.1743H16.456M11.1846 44.864H81.8675M16.456 68.1743V76.5H30.7429V68.1743M16.456 68.1743H30.7429M30.7429 68.1743H46.3695H62.3091M71.8363 37.3445L81.8675 44.864M81.8675 44.864V57.6471V65.9185L78.1077 68.1743H76.5961M76.5961 68.1743V76.5H62.3091V68.1743M76.5961 68.1743H62.3091" stroke="url(#paint4_linear_853_3201)" stroke-width="3"/>
<path d="M37.1162 61.2411L39.372 52.2177H53.5006L55.8835 61.2411H37.1162Z" fill="url(#paint5_linear_853_3201)" stroke="url(#paint6_linear_853_3201)" stroke-width="3"/>
<circle cx="102.271" cy="17.2714" r="6.7714" fill="url(#paint7_linear_853_3201)" stroke="url(#paint8_linear_853_3201)" stroke-width="3"/>
<path d="M118.231 33.7433L115.223 29.7538H98.6805H82.1377L79.1299 33.7433L82.1377 37.503H94.9207V76.6042H103.485H111.464V57.0536H115.223L118.231 53.2939V33.7433Z" fill="url(#paint9_linear_853_3201)"/>
<path d="M111.464 57.0536H115.223L118.231 53.2939V33.7433L115.223 29.7538H98.6805H82.1377L79.1299 33.7433L82.1377 37.503H94.9207V76.6042H103.485M111.464 57.0536V76.6042H103.485M111.464 57.0536V39.0069M103.485 76.6042V57.0536" stroke="url(#paint10_linear_853_3201)" stroke-width="3"/>
<path fill-rule="evenodd" clip-rule="evenodd" d="M30.578 59.365L32.0819 53.3495H18.5469L19.2988 59.365H30.578ZM62.1597 59.365L60.6558 53.3495H74.1909L73.4389 59.365H62.1597Z" fill="url(#paint11_linear_853_3201)"/>
<path d="M32.0819 53.3495L30.578 59.365H19.2988L18.5469 53.3495H32.0819Z" fill="url(#paint12_linear_853_3201)"/>
<path fill-rule="evenodd" clip-rule="evenodd" d="M30.578 59.365L32.0819 53.3495H18.5469L19.2988 59.365H30.578ZM62.1597 59.365L60.6558 53.3495H74.1909L73.4389 59.365H62.1597Z" stroke="url(#paint13_linear_853_3201)" stroke-width="3"/>
<path d="M32.0819 53.3495L30.578 59.365H19.2988L18.5469 53.3495H32.0819Z" stroke="url(#paint14_linear_853_3201)" stroke-width="3"/>
<path d="M9 80L120.415 80" stroke="#1C1C1C" stroke-width="3"/>
<defs>
<linearGradient id="paint0_linear_853_3201" x1="58.928" y1="84.0595" x2="22.5491" y2="39.0594" gradientUnits="userSpaceOnUse">
<stop stop-color="#FEFEFE"/>
<stop offset="1" stop-color="#FFA6A6"/>
</linearGradient>
<linearGradient id="paint1_linear_853_3201" x1="58.928" y1="84.0595" x2="22.5491" y2="39.0594" gradientUnits="userSpaceOnUse">
<stop stop-color="#FEFEFE"/>
<stop offset="1" stop-color="#FFA6A6"/>
</linearGradient>
<linearGradient id="paint2_linear_853_3201" x1="58.928" y1="84.0595" x2="22.5491" y2="39.0594" gradientUnits="userSpaceOnUse">
<stop stop-color="#FEFEFE"/>
<stop offset="1" stop-color="#FFA6A6"/>
</linearGradient>
<linearGradient id="paint3_linear_853_3201" x1="58.928" y1="84.0595" x2="22.5491" y2="39.0594" gradientUnits="userSpaceOnUse">
<stop stop-color="#FEFEFE"/>
<stop offset="1" stop-color="#FFA6A6"/>
</linearGradient>
<linearGradient id="paint4_linear_853_3201" x1="46.526" y1="27.5692" x2="46.526" y2="75.6938" gradientUnits="userSpaceOnUse">
<stop stop-color="#DB0E0E"/>
<stop offset="1" stop-color="#ECA0A0"/>
</linearGradient>
<linearGradient id="paint5_linear_853_3201" x1="50.2358" y1="60.5324" x2="50.834" y2="48.4" gradientUnits="userSpaceOnUse">
<stop stop-color="#999999"/>
<stop offset="0.871633" stop-color="#1A1818"/>
</linearGradient>
<linearGradient id="paint6_linear_853_3201" x1="46.4999" y1="52.3903" x2="46.4999" y2="61.2411" gradientUnits="userSpaceOnUse">
<stop stop-color="#828282"/>
<stop offset="1" stop-color="#1C1C1C"/>
</linearGradient>
<linearGradient id="paint7_linear_853_3201" x1="105.565" y1="24.2436" x2="107.827" y2="2.17876" gradientUnits="userSpaceOnUse">
<stop stop-color="#999999"/>
<stop offset="0.871633" stop-color="#1A1818"/>
</linearGradient>
<linearGradient id="paint8_linear_853_3201" x1="102.271" y1="9.31627" x2="102.271" y2="25.5428" gradientUnits="userSpaceOnUse">
<stop stop-color="#1C1C1C"/>
<stop offset="1" stop-color="#828282"/>
</linearGradient>
<linearGradient id="paint9_linear_853_3201" x1="106.464" y1="72.9248" x2="114.107" y2="10.7175" gradientUnits="userSpaceOnUse">
<stop stop-color="#999999"/>
<stop offset="0.871633" stop-color="#1A1818"/>
</linearGradient>
<linearGradient id="paint10_linear_853_3201" x1="98.6805" y1="30.6495" x2="98.6805" y2="76.6042" gradientUnits="userSpaceOnUse">
<stop stop-color="#1C1C1C"/>
<stop offset="1" stop-color="#828282"/>
</linearGradient>
<linearGradient id="paint11_linear_853_3201" x1="57.4457" y1="58.8926" x2="57.5356" y2="50.7856" gradientUnits="userSpaceOnUse">
<stop stop-color="#999999"/>
<stop offset="0.871633" stop-color="#1A1818"/>
</linearGradient>
<linearGradient id="paint12_linear_853_3201" x1="57.4457" y1="58.8926" x2="57.5356" y2="50.7856" gradientUnits="userSpaceOnUse">
<stop stop-color="#999999"/>
<stop offset="0.871633" stop-color="#1A1818"/>
</linearGradient>
<linearGradient id="paint13_linear_853_3201" x1="46.3689" y1="53.4645" x2="46.3689" y2="59.365" gradientUnits="userSpaceOnUse">
<stop stop-color="#1C1C1C"/>
<stop offset="1" stop-color="#828282"/>
</linearGradient>
<linearGradient id="paint14_linear_853_3201" x1="46.3689" y1="53.4645" x2="46.3689" y2="59.365" gradientUnits="userSpaceOnUse">
<stop stop-color="#1C1C1C"/>
<stop offset="1" stop-color="#828282"/>
</linearGradient>
</defs>
</svg>
