<svg width="130" height="90" viewBox="0 0 130 90" fill="none" xmlns="http://www.w3.org/2000/svg">
<path d="M28.7342 27.5693L21.2147 37.3446H46.525H71.8354L64.3159 27.5693H46.6832H28.7342Z" fill="url(#paint0_linear_938_3221)"/>
<path d="M76.5951 75.6939V68.1744H62.3081V75.6939H76.5951Z" fill="url(#paint1_linear_938_3221)"/>
<path d="M16.455 68.1744V75.6939H30.742V68.1744H16.455Z" fill="url(#paint2_linear_938_3221)"/>
<path d="M11.1836 44.8641V57.6472V65.9186L14.9433 68.1744H16.455H30.742H46.3685H62.3081H76.5951H78.1068L81.8665 65.9186V57.6472V44.8641L71.8354 37.3446H46.525H21.2147L11.1836 44.8641Z" fill="url(#paint3_linear_938_3221)"/>
<path d="M21.2147 37.3446L28.7342 27.5693H46.6832H64.3159L71.8354 37.3446M21.2147 37.3446H46.525H71.8354M21.2147 37.3446L11.1836 44.8641M11.1836 44.8641V57.6472V65.9186L14.9433 68.1744H16.455M11.1836 44.8641H81.8665M16.455 68.1744V75.6939H30.742V68.1744M16.455 68.1744H30.742M30.742 68.1744H46.3685H62.3081M71.8354 37.3446L81.8665 44.8641M81.8665 44.8641V57.6472V65.9186L78.1068 68.1744H76.5951M76.5951 68.1744V75.6939H62.3081V68.1744M76.5951 68.1744H62.3081" stroke="#DB0E0E" stroke-width="3"/>
<path d="M37.1172 61.2411L39.373 52.2178H53.5016L55.8845 61.2411H37.1172Z" fill="url(#paint4_linear_938_3221)"/>
<path d="M37.1172 61.2411L39.373 52.2178H53.5016L55.8845 61.2411H37.1172Z" fill="url(#paint5_linear_938_3221)"/>
<path d="M37.1172 61.2411L39.373 52.2178H53.5016L55.8845 61.2411H37.1172Z" stroke="#696969" stroke-width="3"/>
<circle cx="102.732" cy="17.2714" r="6.7714" fill="url(#paint6_linear_938_3221)"/>
<circle cx="102.732" cy="17.2714" r="6.7714" fill="url(#paint7_linear_938_3221)"/>
<circle cx="102.732" cy="17.2714" r="6.7714" stroke="#696969" stroke-width="3"/>
<path d="M118.493 33.7434L115.485 29.7539H103.746H92.0078L89 33.7434V53.294L92.0078 57.0537H95.7675V76.6043H103.746H111.725V57.0537H115.485L118.493 53.294V33.7434Z" fill="url(#paint8_linear_938_3221)"/>
<path d="M118.493 33.7434L115.485 29.7539H103.746H92.0078L89 33.7434V53.294L92.0078 57.0537H95.7675V76.6043H103.746H111.725V57.0537H115.485L118.493 53.294V33.7434Z" fill="url(#paint9_linear_938_3221)"/>
<path d="M111.725 57.0537H115.485L118.493 53.294V33.7434L115.485 29.7539H103.746H92.0078L89 33.7434V53.294L92.0078 57.0537H95.7675M111.725 57.0537V76.6043H103.746M111.725 57.0537V39.007M103.746 76.6043V57.0537M103.746 76.6043H95.7675V57.0537M95.7675 57.0537V39.007" stroke="#696969" stroke-width="3"/>
<path fill-rule="evenodd" clip-rule="evenodd" d="M30.578 59.3652L32.0819 53.3496H18.5469L19.2988 59.3652H30.578ZM62.1597 59.3652L60.6558 53.3496H74.1909L73.4389 59.3652H62.1597Z" fill="url(#paint10_linear_938_3221)"/>
<path fill-rule="evenodd" clip-rule="evenodd" d="M30.578 59.3652L32.0819 53.3496H18.5469L19.2988 59.3652H30.578ZM62.1597 59.3652L60.6558 53.3496H74.1909L73.4389 59.3652H62.1597Z" fill="url(#paint11_linear_938_3221)"/>
<path d="M32.0819 53.3496L30.578 59.3652H19.2988L18.5469 53.3496H32.0819Z" fill="url(#paint12_linear_938_3221)"/>
<path d="M32.0819 53.3496L30.578 59.3652H19.2988L18.5469 53.3496H32.0819Z" fill="url(#paint13_linear_938_3221)"/>
<path fill-rule="evenodd" clip-rule="evenodd" d="M30.578 59.3652L32.0819 53.3496H18.5469L19.2988 59.3652H30.578ZM62.1597 59.3652L60.6558 53.3496H74.1909L73.4389 59.3652H62.1597Z" stroke="#696969" stroke-width="3"/>
<path d="M32.0819 53.3496L30.578 59.3652H19.2988L18.5469 53.3496H32.0819Z" stroke="#696969" stroke-width="3"/>
<path d="M9 80L120.415 80" stroke="#1C1C1C" stroke-width="3"/>
<defs>
<linearGradient id="paint0_linear_938_3221" x1="58.927" y1="84.0596" x2="22.5481" y2="39.0595" gradientUnits="userSpaceOnUse">
<stop stop-color="#FEFEFE"/>
<stop offset="1" stop-color="#FFA6A6"/>
</linearGradient>
<linearGradient id="paint1_linear_938_3221" x1="58.927" y1="84.0596" x2="22.5481" y2="39.0595" gradientUnits="userSpaceOnUse">
<stop stop-color="#FEFEFE"/>
<stop offset="1" stop-color="#FFA6A6"/>
</linearGradient>
<linearGradient id="paint2_linear_938_3221" x1="58.927" y1="84.0596" x2="22.5481" y2="39.0595" gradientUnits="userSpaceOnUse">
<stop stop-color="#FEFEFE"/>
<stop offset="1" stop-color="#FFA6A6"/>
</linearGradient>
<linearGradient id="paint3_linear_938_3221" x1="58.927" y1="84.0596" x2="22.5481" y2="39.0595" gradientUnits="userSpaceOnUse">
<stop stop-color="#FEFEFE"/>
<stop offset="1" stop-color="#FFA6A6"/>
</linearGradient>
<linearGradient id="paint4_linear_938_3221" x1="51.6902" y1="64.4195" x2="50.7861" y2="51.9514" gradientUnits="userSpaceOnUse">
<stop offset="0.128367" stop-color="#1A1818"/>
<stop offset="1" stop-color="#999999"/>
</linearGradient>
<linearGradient id="paint5_linear_938_3221" x1="51.6902" y1="64.4195" x2="50.7861" y2="51.9514" gradientUnits="userSpaceOnUse">
<stop offset="0.128367" stop-color="white"/>
<stop offset="1" stop-color="#999999"/>
</linearGradient>
<linearGradient id="paint6_linear_938_3221" x1="107.307" y1="31.3699" x2="103.918" y2="8.90236" gradientUnits="userSpaceOnUse">
<stop offset="0.128367" stop-color="#1A1818"/>
<stop offset="1" stop-color="#999999"/>
</linearGradient>
<linearGradient id="paint7_linear_938_3221" x1="107.307" y1="31.3699" x2="103.918" y2="8.90236" gradientUnits="userSpaceOnUse">
<stop offset="0.128367" stop-color="white"/>
<stop offset="1" stop-color="#999999"/>
</linearGradient>
<linearGradient id="paint8_linear_938_3221" x1="109.753" y1="93.107" x2="98.3659" y2="30.0879" gradientUnits="userSpaceOnUse">
<stop offset="0.128367" stop-color="#1A1818"/>
<stop offset="1" stop-color="#999999"/>
</linearGradient>
<linearGradient id="paint9_linear_938_3221" x1="111.901" y1="93.107" x2="97.1575" y2="31.5623" gradientUnits="userSpaceOnUse">
<stop offset="0.128367" stop-color="white"/>
<stop offset="1" stop-color="#999999"/>
</linearGradient>
<linearGradient id="paint10_linear_938_3221" x1="61.7549" y1="61.4841" x2="61.6187" y2="53.1305" gradientUnits="userSpaceOnUse">
<stop offset="0.128367" stop-color="#1A1818"/>
<stop offset="1" stop-color="#999999"/>
</linearGradient>
<linearGradient id="paint11_linear_938_3221" x1="61.7549" y1="61.4841" x2="61.6187" y2="53.1305" gradientUnits="userSpaceOnUse">
<stop offset="0.128367" stop-color="white"/>
<stop offset="1" stop-color="#999999"/>
</linearGradient>
<linearGradient id="paint12_linear_938_3221" x1="61.7549" y1="61.4841" x2="61.6187" y2="53.1305" gradientUnits="userSpaceOnUse">
<stop offset="0.128367" stop-color="#1A1818"/>
<stop offset="1" stop-color="#999999"/>
</linearGradient>
<linearGradient id="paint13_linear_938_3221" x1="61.7549" y1="61.4841" x2="61.6187" y2="53.1305" gradientUnits="userSpaceOnUse">
<stop offset="0.128367" stop-color="white"/>
<stop offset="1" stop-color="#999999"/>
</linearGradient>
</defs>
</svg>
