<svg width="130" height="90" viewBox="0 0 130 90" fill="none" xmlns="http://www.w3.org/2000/svg">
<path d="M7 76.0858H122L112 86.0858H17L7 76.0858Z" fill="url(#paint0_linear_853_3201)" stroke="url(#paint1_linear_853_3201)" stroke-width="3"/>
<path d="M36.7979 26.7784L43.9229 32.0837V36.5047L40.3604 45.3468L90.6807 48.8837L93.7979 41.3679L85.7822 36.5047L86.2275 32.0837L92.9072 28.1047L88.8994 18.8205L80.4385 21.031L78.2119 18.3784L80.4385 9.9784L71.0869 6.88367L66.6338 13.5152H63.0713L57.7275 6.88367L49.7119 9.9784L51.0479 18.3784L48.8213 21.031L40.3604 19.2626L36.7979 26.7784Z" fill="url(#paint2_linear_853_3201)"/>
<circle cx="65.7979" cy="34.8837" r="10" fill="#D9D9D9"/>
<circle cx="65.7979" cy="34.8837" r="10" fill="url(#paint3_linear_853_3201)"/>
<path d="M88.038 33.7228V34.2676C88.038 34.4492 88.048 34.6308 88.068 34.8124V35.3572C88.068 35.5388 88.058 35.7204 88.038 35.902L95.7979 40.7751L91.0341 52.3676L82.1358 50.3094C81.6564 50.834 81.1571 51.3385 80.6377 51.8228L82.6751 60.8123L71.2001 65.6248L66.3764 57.7855H65.8371C65.6574 57.7855 65.4776 57.7956 65.2979 57.8158H64.7586C64.5788 57.8158 64.399 57.8057 64.2193 57.7855L59.3956 65.6248L47.9206 60.8123L49.958 51.8228C49.4387 51.3385 48.9393 50.834 48.4599 50.3094L39.5616 52.3676L34.7979 40.7751L42.5577 35.902V35.3572C42.5577 35.1756 42.5477 34.994 42.5277 34.8124V34.2676C42.5277 34.086 42.5377 33.9044 42.5577 33.7228L34.7979 28.8497L39.5616 17.2572L48.4599 19.3154C48.9393 18.7908 49.4387 18.2863 49.958 17.802L47.9206 8.81255L59.3956 4L64.2193 11.8393H64.7586C64.9383 11.8393 65.1181 11.8292 65.2979 11.809H65.8371C66.0169 11.809 66.1967 11.8191 66.3764 11.8393L71.2001 4L82.6751 8.81255L80.6377 17.802C81.1571 18.2863 81.6564 18.7908 82.1358 19.3154L91.0341 17.2572L95.7979 28.8497L88.038 33.7228ZM84.5326 37.6576C84.5726 37.1733 84.6125 36.6991 84.6525 36.235C84.6924 35.7709 84.7124 35.2866 84.7124 34.7821C84.7124 34.318 84.6924 33.8438 84.6525 33.3596C84.6125 32.8753 84.5726 32.4011 84.5326 31.937L91.6034 27.4876L89.0267 21.192L80.9074 23.0988C80.2882 22.3321 79.659 21.6258 79.0199 20.9801C78.3807 20.3344 77.6716 19.6887 76.8926 19.043L78.7802 10.8405L72.5483 8.23746L68.1142 15.3806C67.6548 15.3403 67.1854 15.2999 66.706 15.2595C66.2266 15.2192 65.7572 15.199 65.2979 15.199C64.8185 15.199 64.3491 15.2192 63.8897 15.2595C63.4303 15.2999 62.9509 15.3403 62.4516 15.3806L58.0474 8.23746L51.8155 10.8405L53.7031 19.043C52.9441 19.6685 52.245 20.3041 51.6058 20.9498C50.9666 21.5956 50.3275 22.3119 49.6883 23.0988L41.569 21.192L38.9924 27.4876L46.0631 31.9673C46.0231 32.4515 45.9832 32.9257 45.9432 33.3898C45.9033 33.8539 45.8833 34.3382 45.8833 34.8427C45.8833 35.3068 45.9033 35.781 45.9432 36.2652C45.9832 36.7495 46.0231 37.2237 46.0631 37.6878L38.9924 42.1372L41.569 48.4328L49.6883 46.526C50.3075 47.2927 50.9367 47.999 51.5758 48.6447C52.215 49.2904 52.9241 49.9361 53.7031 50.5818L51.8155 58.7843L58.0474 61.3873L62.4815 54.2442C62.9409 54.2846 63.4103 54.3249 63.8897 54.3653C64.3691 54.4056 64.8385 54.4258 65.2979 54.4258C65.7772 54.4258 66.2466 54.4056 66.706 54.3653C67.1654 54.3249 67.6448 54.2846 68.1441 54.2442L72.5483 61.3873L78.7802 58.7843L76.8926 50.5818C77.6516 49.9563 78.3507 49.3207 78.9899 48.675C79.6291 48.0293 80.2682 47.3129 80.9074 46.526L89.0267 48.4328L91.6034 42.1372L84.5326 37.6576ZM65.2979 23.4318C66.8558 23.4318 68.3139 23.7244 69.6721 24.3096C71.0303 24.8947 72.2288 25.712 73.2674 26.7612C74.306 27.8105 75.105 29.0111 75.6643 30.3631C76.2235 31.715 76.5231 33.1981 76.5631 34.8124C76.5631 36.3863 76.2735 37.8593 75.6942 39.2315C75.115 40.6036 74.306 41.8143 73.2674 42.8636C72.2288 43.9129 71.0403 44.72 69.7021 45.285C68.3638 45.85 66.8958 46.1527 65.2979 46.193C63.7399 46.193 62.2818 45.9004 60.9236 45.3153C59.5654 44.7301 58.3669 43.9129 57.3283 42.8636C56.2897 41.8143 55.4907 40.6137 54.9314 39.2617C54.3722 37.9098 54.0726 36.4267 54.0326 34.8124C54.0326 33.2385 54.3222 31.7655 54.9015 30.3933C55.4807 29.0212 56.2897 27.8105 57.3283 26.7612C58.3669 25.712 59.5554 24.9048 60.8936 24.3398C62.2319 23.7748 63.6999 23.4721 65.2979 23.4318ZM65.2979 42.803C66.3964 42.803 67.4251 42.6013 68.3838 42.1977C69.3425 41.7941 70.1814 41.219 70.9005 40.4724C71.6196 39.7258 72.1788 38.8784 72.5783 37.93C72.9778 36.9816 73.1875 35.9424 73.2075 34.8124C73.2075 33.7026 73.0077 32.6634 72.6083 31.6948C72.2088 30.7263 71.6395 29.8788 70.9005 29.1524C70.1615 28.4259 69.3226 27.8609 68.3838 27.4574C67.445 27.0538 66.4164 26.8419 65.2979 26.8218C64.1993 26.8218 63.1706 27.0235 62.2119 27.4271C61.2532 27.8307 60.4143 28.4058 59.6952 29.1524C58.9761 29.899 58.4169 30.7465 58.0174 31.6948C57.6179 32.6432 57.4082 33.6824 57.3882 34.8124C57.3882 35.9222 57.588 36.9614 57.9874 37.93C58.3869 38.8985 58.9562 39.746 59.6952 40.4724C60.4342 41.1989 61.2731 41.7639 62.2119 42.1674C63.1507 42.571 64.1793 42.7829 65.2979 42.803Z" fill="#DB0E0E"/>
<path d="M19.0323 42.1181L37.0968 33.0858H55.1613H73.2258L88.7097 42.1181L106.452 44.0536L115.161 44.6987L119.677 47.9245V50.5052V62.1181L115.161 64.6987H84.8387H55.1613H35.8065H21.6129L13.2258 62.4514L10 61.5871V49.86V45.3439L19.0323 42.1181Z" fill="url(#paint4_linear_853_3201)"/>
<path d="M19.0323 42.1181L37.0968 33.0858M19.0323 42.1181L10 45.3439M19.0323 42.1181H32.5807M37.0968 33.0858H55.1613M37.0968 33.0858L32.5807 42.1181M73.2258 33.0858L88.7097 42.1181M73.2258 33.0858L77.0968 42.1181M73.2258 33.0858H55.1613M88.7097 42.1181H77.0968M88.7097 42.1181L84.8387 64.6987M88.7097 42.1181L106.452 44.0536M10 45.3439V49.86M10 45.3439H20.3226L20.9677 49.86H10M77.0968 42.1181H32.5807M55.1613 33.0858V64.6987M55.1613 64.6987H84.8387M55.1613 64.6987H35.8065H21.6129L13.2258 62.4514L10 61.5871V49.86M84.8387 64.6987H115.161L119.677 62.1181V50.5052M61.6129 47.9245H68.0645M119.677 50.5052V47.9245L115.161 44.6987L106.452 44.0536M119.677 50.5052L108.065 49.2149L106.452 44.0536" stroke="url(#paint5_linear_853_3201)" stroke-width="3"/>
<circle cx="100.967" cy="64.6987" r="8.3871" fill="url(#paint6_linear_853_3201)" stroke="url(#paint7_linear_853_3201)" stroke-width="3"/>
<circle cx="33.8705" cy="64.6987" r="8.3871" fill="url(#paint8_linear_853_3201)" stroke="url(#paint9_linear_853_3201)" stroke-width="3"/>
<defs>
<linearGradient id="paint0_linear_853_3201" x1="84.6778" y1="87.8242" x2="83.0982" y2="72.5254" gradientUnits="userSpaceOnUse">
<stop stop-color="#FEFEFE"/>
<stop offset="1" stop-color="#FFA6A6"/>
</linearGradient>
<linearGradient id="paint1_linear_853_3201" x1="64.5" y1="76.0858" x2="64.5" y2="86.0858" gradientUnits="userSpaceOnUse">
<stop stop-color="#DB0E0E"/>
<stop offset="1" stop-color="#ECA0A0"/>
</linearGradient>
<linearGradient id="paint2_linear_853_3201" x1="75.299" y1="56.5191" x2="41.4756" y2="19.5525" gradientUnits="userSpaceOnUse">
<stop stop-color="#FEFEFE"/>
<stop offset="1" stop-color="#FFA6A6"/>
</linearGradient>
<linearGradient id="paint3_linear_853_3201" x1="69.307" y1="48.5196" x2="53.5088" y2="35.797" gradientUnits="userSpaceOnUse">
<stop stop-color="#FEFEFE"/>
<stop offset="1" stop-color="#FFA6A6"/>
</linearGradient>
<linearGradient id="paint4_linear_853_3201" x1="95.1654" y1="75.8341" x2="93.2603" y2="32.0056" gradientUnits="userSpaceOnUse">
<stop offset="0.128367" stop-color="#1A1818"/>
<stop offset="1" stop-color="#999999"/>
</linearGradient>
<linearGradient id="paint5_linear_853_3201" x1="64.8387" y1="33.6902" x2="64.8387" y2="64.6987" gradientUnits="userSpaceOnUse">
<stop stop-color="#1C1C1C"/>
<stop offset="1" stop-color="#828282"/>
</linearGradient>
<linearGradient id="paint6_linear_853_3201" x1="104.306" y1="71.7685" x2="106.601" y2="49.395" gradientUnits="userSpaceOnUse">
<stop stop-color="#999999"/>
<stop offset="0.871633" stop-color="#1A1818"/>
</linearGradient>
<linearGradient id="paint7_linear_853_3201" x1="100.967" y1="56.6323" x2="100.967" y2="73.0858" gradientUnits="userSpaceOnUse">
<stop stop-color="#1C1C1C"/>
<stop offset="1" stop-color="#828282"/>
</linearGradient>
<linearGradient id="paint8_linear_853_3201" x1="37.2097" y1="71.7685" x2="39.5038" y2="49.395" gradientUnits="userSpaceOnUse">
<stop stop-color="#999999"/>
<stop offset="0.871633" stop-color="#1A1818"/>
</linearGradient>
<linearGradient id="paint9_linear_853_3201" x1="33.8705" y1="56.6323" x2="33.8705" y2="73.0858" gradientUnits="userSpaceOnUse">
<stop stop-color="#1C1C1C"/>
<stop offset="1" stop-color="#828282"/>
</linearGradient>
</defs>
</svg>
