<svg width="130" height="90" viewBox="0 0 130 90" fill="none" xmlns="http://www.w3.org/2000/svg">
<g clip-path="url(#clip0_853_3201)">
<path d="M27.6074 71.6H63.0347L67.6356 80.756H24.3867L27.6074 71.6Z" fill="url(#paint0_linear_853_3201)" stroke="url(#paint1_linear_853_3201)" stroke-width="3"/>
<path d="M18.2206 80.571H74.5365L79.1374 89.727H15L18.2206 80.571Z" fill="url(#paint2_linear_853_3201)" stroke="url(#paint3_linear_853_3201)" stroke-width="3"/>
<rect width="31.229" height="28.436" transform="matrix(0.79623 -0.604994 0.608823 0.793306 46.4697 27.705)" fill="url(#paint4_linear_853_3201)" stroke="url(#paint5_linear_853_3201)" stroke-width="3"/>
<path d="M103.48 87.0279L73.6546 42.7616L78.577 39.0214L113.719 79.2483L110.88 86.1101L103.48 87.0279Z" fill="url(#paint6_linear_853_3201)" stroke="url(#paint7_linear_853_3201)" stroke-width="3"/>
<path d="M67.6909 55.3572L43.1183 23.3388L40.1929 25.5615L39.5428 30.7489L59.5649 56.838L64.7655 57.58L67.6909 55.3572Z" fill="url(#paint8_linear_853_3201)" stroke="url(#paint9_linear_853_3201)" stroke-width="3"/>
<path d="M92.5559 36.464L67.9833 4.44549L70.9086 2.22274L76.1092 2.96467L96.1314 29.0538L95.4813 34.2412L92.5559 36.464Z" fill="url(#paint10_linear_853_3201)" stroke="url(#paint11_linear_853_3201)" stroke-width="3"/>
</g>
<defs>
<linearGradient id="paint0_linear_853_3201" x1="53.5996" y1="82.3477" x2="50.2525" y2="69.0322" gradientUnits="userSpaceOnUse">
<stop stop-color="#FEFEFE"/>
<stop offset="1" stop-color="#FFA6A6"/>
</linearGradient>
<linearGradient id="paint1_linear_853_3201" x1="46.0112" y1="71.6" x2="46.0112" y2="80.756" gradientUnits="userSpaceOnUse">
<stop stop-color="#DB0E0E"/>
<stop offset="1" stop-color="#ECA0A0"/>
</linearGradient>
<linearGradient id="paint2_linear_853_3201" x1="58.3222" y1="91.3186" x2="55.9896" y2="77.5571" gradientUnits="userSpaceOnUse">
<stop stop-color="#FEFEFE"/>
<stop offset="1" stop-color="#FFA6A6"/>
</linearGradient>
<linearGradient id="paint3_linear_853_3201" x1="47.0687" y1="80.571" x2="47.0687" y2="89.727" gradientUnits="userSpaceOnUse">
<stop stop-color="#DB0E0E"/>
<stop offset="1" stop-color="#ECA0A0"/>
</linearGradient>
<linearGradient id="paint4_linear_853_3201" x1="24.2495" y1="38.4524" x2="18.926" y2="-0.315135" gradientUnits="userSpaceOnUse">
<stop offset="0.128367" stop-color="#1A1818"/>
<stop offset="1" stop-color="#999999"/>
</linearGradient>
<linearGradient id="paint5_linear_853_3201" x1="15.6145" y1="0.543656" x2="15.6145" y2="28.436" gradientUnits="userSpaceOnUse">
<stop stop-color="#1C1C1C"/>
<stop offset="1" stop-color="#828282"/>
</linearGradient>
<linearGradient id="paint6_linear_853_3201" x1="110.191" y1="81.0079" x2="94.6935" y2="12.8979" gradientUnits="userSpaceOnUse">
<stop stop-color="#999999"/>
<stop offset="0.871633" stop-color="#1A1818"/>
</linearGradient>
<linearGradient id="paint7_linear_853_3201" x1="76.8184" y1="41.7272" x2="110.665" y2="86.2732" gradientUnits="userSpaceOnUse">
<stop stop-color="#1C1C1C"/>
<stop offset="1" stop-color="#828282"/>
</linearGradient>
<linearGradient id="paint8_linear_853_3201" x1="75.0388" y1="67.629" x2="32.8756" y2="57.877" gradientUnits="userSpaceOnUse">
<stop offset="0.128367" stop-color="#1A1818"/>
<stop offset="1" stop-color="#999999"/>
</linearGradient>
<linearGradient id="paint9_linear_853_3201" x1="40.6627" y1="26.1736" x2="64.6136" y2="57.6954" gradientUnits="userSpaceOnUse">
<stop stop-color="#1C1C1C"/>
<stop offset="1" stop-color="#828282"/>
</linearGradient>
<linearGradient id="paint10_linear_853_3201" x1="102.519" y1="46.7487" x2="104.244" y2="3.71138" gradientUnits="userSpaceOnUse">
<stop offset="0.128367" stop-color="#1A1818"/>
<stop offset="1" stop-color="#999999"/>
</linearGradient>
<linearGradient id="paint11_linear_853_3201" x1="71.3784" y1="2.83489" x2="95.3294" y2="34.3566" gradientUnits="userSpaceOnUse">
<stop stop-color="#1C1C1C"/>
<stop offset="1" stop-color="#828282"/>
</linearGradient>
<clipPath id="clip0_853_3201">
<rect width="130" height="90" fill="white"/>
</clipPath>
</defs>
</svg>
