<svg width="130" height="90" viewBox="0 0 130 90" fill="none" xmlns="http://www.w3.org/2000/svg">
<path d="M34.8223 13.5V71.5H94.8223V6H42.3223L34.8223 13.5Z" fill="url(#paint0_linear_938_3221)" stroke="#DB0E0E" stroke-width="3"/>
<path d="M62.3223 19L86.3223 19" stroke="#DB0E0E" stroke-width="3"/>
<path d="M43.3223 25H58.3223" stroke="#DB0E0E" stroke-width="3"/>
<path d="M62.3223 25L86.3223 25" stroke="#DB0E0E" stroke-width="3"/>
<path d="M43.3223 31H85.8223" stroke="#DB0E0E" stroke-width="3"/>
<path d="M43.3223 37H85.8223" stroke="#DB0E0E" stroke-width="3"/>
<path d="M43.3223 43H85.8223" stroke="#DB0E0E" stroke-width="3"/>
<path d="M19.0323 53.0323L37.0968 44H55.1613H73.2258L88.7097 53.0323L106.452 54.9677L115.161 55.6129L119.677 58.8387V61.4194V73.0323L115.161 75.6129H84.8387H55.1613H35.8065H21.6129L13.2258 73.3656L10 72.5012V60.7742V56.2581L19.0323 53.0323Z" fill="url(#paint1_linear_938_3221)"/>
<path d="M19.0323 53.0323L37.0968 44M19.0323 53.0323L10 56.2581M19.0323 53.0323H32.5807M37.0968 44H55.1613M37.0968 44L32.5807 53.0323M73.2258 44L88.7097 53.0323M73.2258 44L77.0968 53.0323M73.2258 44H55.1613M88.7097 53.0323H77.0968M88.7097 53.0323L84.8387 75.6129M88.7097 53.0323L106.452 54.9677M10 56.2581V60.7742M10 56.2581H20.3226L20.9677 60.7742H10M77.0968 53.0323H32.5807M55.1613 44V75.6129M55.1613 75.6129H84.8387M55.1613 75.6129H35.8065H21.6129L13.2258 73.3656L10 72.5012V60.7742M84.8387 75.6129H115.161L119.677 73.0323V61.4194M61.6129 58.8387H68.0645M119.677 61.4194V58.8387L115.161 55.6129L106.452 54.9677M119.677 61.4194L108.065 60.129L106.452 54.9677" stroke="#696969" stroke-width="3"/>
<circle cx="100.967" cy="75.6127" r="8.3871" fill="url(#paint2_linear_938_3221)"/>
<circle cx="100.967" cy="75.6127" r="8.3871" fill="url(#paint3_linear_938_3221)"/>
<circle cx="100.967" cy="75.6127" r="8.3871" stroke="#696969" stroke-width="3"/>
<circle cx="33.8715" cy="75.6127" r="8.3871" fill="url(#paint4_linear_938_3221)"/>
<circle cx="33.8715" cy="75.6127" r="8.3871" fill="url(#paint5_linear_938_3221)"/>
<circle cx="33.8715" cy="75.6127" r="8.3871" stroke="#696969" stroke-width="3"/>
<defs>
<linearGradient id="paint0_linear_938_3221" x1="75.3498" y1="83.4077" x2="24.7525" y2="46.0823" gradientUnits="userSpaceOnUse">
<stop stop-color="#FEFEFE"/>
<stop offset="1" stop-color="#FFA6A6"/>
</linearGradient>
<linearGradient id="paint1_linear_938_3221" x1="95.1654" y1="86.7483" x2="93.2603" y2="42.9198" gradientUnits="userSpaceOnUse">
<stop offset="0.128367" stop-color="white"/>
<stop offset="1" stop-color="#999999"/>
</linearGradient>
<linearGradient id="paint2_linear_938_3221" x1="105.605" y1="89.9084" x2="102.17" y2="67.1266" gradientUnits="userSpaceOnUse">
<stop offset="0.128367" stop-color="#1A1818"/>
<stop offset="1" stop-color="#999999"/>
</linearGradient>
<linearGradient id="paint3_linear_938_3221" x1="105.605" y1="89.9084" x2="102.17" y2="67.1266" gradientUnits="userSpaceOnUse">
<stop offset="0.128367" stop-color="white"/>
<stop offset="1" stop-color="#999999"/>
</linearGradient>
<linearGradient id="paint4_linear_938_3221" x1="38.5097" y1="89.9084" x2="35.0741" y2="67.1266" gradientUnits="userSpaceOnUse">
<stop offset="0.128367" stop-color="#1A1818"/>
<stop offset="1" stop-color="#999999"/>
</linearGradient>
<linearGradient id="paint5_linear_938_3221" x1="38.5097" y1="89.9084" x2="35.0741" y2="67.1266" gradientUnits="userSpaceOnUse">
<stop offset="0.128367" stop-color="white"/>
<stop offset="1" stop-color="#999999"/>
</linearGradient>
</defs>
</svg>
