<svg width="130" height="90" viewBox="0 0 130 90" fill="none" xmlns="http://www.w3.org/2000/svg">
<path d="M52.7293 4.99994L43.8049 17.7427H23.8125L18 23.5552V73.8557H111V24.0023L104.74 17.7427H85.0493L76.125 4.99994H52.7293Z" fill="url(#paint0_linear_853_3201)" stroke="url(#paint1_linear_853_3201)" stroke-width="3"/>
<circle cx="64.0525" cy="45.6875" r="21.0144" fill="url(#paint2_linear_853_3201)" stroke="url(#paint3_linear_853_3201)" stroke-width="3"/>
<path d="M47.6164 38.0865L40.2914 47.5318H64.9474H89.6035L82.2784 38.0865H65.1014H47.6164Z" fill="url(#paint4_linear_853_3201)"/>
<path d="M94.3177 84.5865V77.3209H80.4001V84.5865H94.3177Z" fill="url(#paint5_linear_853_3201)"/>
<path d="M34.5771 77.3209V84.5865H48.4948V77.3209H34.5771Z" fill="url(#paint6_linear_853_3201)"/>
<path d="M30.5195 54.7974V67.149V75.1412L34.1821 77.3209H34.5771H48.4948H64.795H80.4001H94.3177H95.7128L99.3753 75.1412V67.149V54.7974L89.6035 47.5318H64.9474H40.2914L30.5195 54.7974Z" fill="url(#paint7_linear_853_3201)"/>
<path d="M40.2914 47.5318L47.6164 38.0865H65.1014H82.2784L89.6035 47.5318M40.2914 47.5318H64.9474H89.6035M40.2914 47.5318L30.5195 54.7974M30.5195 54.7974V67.149V75.1412L34.1821 77.3209H34.5771M30.5195 54.7974H99.3753M34.5771 77.3209V84.5865H48.4948V77.3209M34.5771 77.3209H48.4948M48.4948 77.3209H64.795H80.4001M89.6035 47.5318L99.3753 54.7974M99.3753 54.7974V67.149V75.1412L95.7128 77.3209H94.3177M94.3177 77.3209V84.5865H80.4001V77.3209M94.3177 77.3209H80.4001" stroke="url(#paint8_linear_853_3201)" stroke-width="3"/>
<path d="M56.4521 70.2788L58.4944 62.2307H71.2852L73.4425 70.2788H56.4521Z" fill="url(#paint9_linear_853_3201)" stroke="url(#paint10_linear_853_3201)" stroke-width="3"/>
<path fill-rule="evenodd" clip-rule="evenodd" d="M49.2737 69.3846L50.7238 63.1249H37.6729L38.3979 69.3846H49.2737ZM79.7259 69.3846L78.2758 63.1249H91.3267L90.6017 69.3846H79.7259Z" fill="url(#paint11_linear_853_3201)"/>
<path d="M50.7238 63.1249L49.2737 69.3846H38.3979L37.6729 63.1249H50.7238Z" fill="url(#paint12_linear_853_3201)"/>
<path fill-rule="evenodd" clip-rule="evenodd" d="M49.2737 69.3846L50.7238 63.1249H37.6729L38.3979 69.3846H49.2737ZM79.7259 69.3846L78.2758 63.1249H91.3267L90.6017 69.3846H79.7259Z" stroke="url(#paint13_linear_853_3201)" stroke-width="3"/>
<path d="M50.7238 63.1249L49.2737 69.3846H38.3979L37.6729 63.1249H50.7238Z" stroke="url(#paint14_linear_853_3201)" stroke-width="3"/>
<rect x="25.1543" y="26.4615" width="13.4135" height="6.25962" fill="url(#paint15_linear_853_3201)" stroke="url(#paint16_linear_853_3201)" stroke-width="3"/>
<defs>
<linearGradient id="paint0_linear_853_3201" x1="80.8177" y1="85.8253" x2="28.0246" y2="25.7721" gradientUnits="userSpaceOnUse">
<stop stop-color="#FEFEFE"/>
<stop offset="1" stop-color="#FFA6A6"/>
</linearGradient>
<linearGradient id="paint1_linear_853_3201" x1="64.5" y1="4.99994" x2="64.5" y2="73.8557" gradientUnits="userSpaceOnUse">
<stop stop-color="#DB0E0E"/>
<stop offset="1" stop-color="#ECA0A0"/>
</linearGradient>
<linearGradient id="paint2_linear_853_3201" x1="71.4268" y1="74.008" x2="39.408" y2="47.0416" gradientUnits="userSpaceOnUse">
<stop stop-color="#FEFEFE"/>
<stop offset="1" stop-color="#FFA6A6"/>
</linearGradient>
<linearGradient id="paint3_linear_853_3201" x1="64.0525" y1="24.673" x2="64.0525" y2="66.7019" gradientUnits="userSpaceOnUse">
<stop stop-color="#DB0E0E"/>
<stop offset="1" stop-color="#ECA0A0"/>
</linearGradient>
<linearGradient id="paint4_linear_853_3201" x1="83.9866" y1="100.966" x2="77.4761" y2="37.0388" gradientUnits="userSpaceOnUse">
<stop offset="0.128367" stop-color="#1A1818"/>
<stop offset="1" stop-color="#999999"/>
</linearGradient>
<linearGradient id="paint5_linear_853_3201" x1="83.9866" y1="100.966" x2="77.4761" y2="37.0388" gradientUnits="userSpaceOnUse">
<stop offset="0.128367" stop-color="#1A1818"/>
<stop offset="1" stop-color="#999999"/>
</linearGradient>
<linearGradient id="paint6_linear_853_3201" x1="83.9866" y1="100.966" x2="77.4761" y2="37.0388" gradientUnits="userSpaceOnUse">
<stop offset="0.128367" stop-color="#1A1818"/>
<stop offset="1" stop-color="#999999"/>
</linearGradient>
<linearGradient id="paint7_linear_853_3201" x1="83.9866" y1="100.966" x2="77.4761" y2="37.0388" gradientUnits="userSpaceOnUse">
<stop offset="0.128367" stop-color="#1A1818"/>
<stop offset="1" stop-color="#999999"/>
</linearGradient>
<linearGradient id="paint8_linear_853_3201" x1="64.9474" y1="38.9755" x2="64.9474" y2="84.5865" gradientUnits="userSpaceOnUse">
<stop stop-color="#1C1C1C"/>
<stop offset="1" stop-color="#828282"/>
</linearGradient>
<linearGradient id="paint9_linear_853_3201" x1="69.6453" y1="73.1137" x2="68.8508" y2="61.9914" gradientUnits="userSpaceOnUse">
<stop offset="0.128367" stop-color="#1A1818"/>
<stop offset="1" stop-color="#999999"/>
</linearGradient>
<linearGradient id="paint10_linear_853_3201" x1="64.9473" y1="62.3846" x2="64.9473" y2="70.2788" gradientUnits="userSpaceOnUse">
<stop stop-color="#1C1C1C"/>
<stop offset="1" stop-color="#828282"/>
</linearGradient>
<linearGradient id="paint11_linear_853_3201" x1="75.1805" y1="68.893" x2="75.2814" y2="60.4573" gradientUnits="userSpaceOnUse">
<stop stop-color="#999999"/>
<stop offset="0.871633" stop-color="#1A1818"/>
</linearGradient>
<linearGradient id="paint12_linear_853_3201" x1="75.1805" y1="68.893" x2="75.2814" y2="60.4573" gradientUnits="userSpaceOnUse">
<stop stop-color="#999999"/>
<stop offset="0.871633" stop-color="#1A1818"/>
</linearGradient>
<linearGradient id="paint13_linear_853_3201" x1="64.4998" y1="63.2446" x2="64.4998" y2="69.3846" gradientUnits="userSpaceOnUse">
<stop stop-color="#1C1C1C"/>
<stop offset="1" stop-color="#828282"/>
</linearGradient>
<linearGradient id="paint14_linear_853_3201" x1="64.4998" y1="63.2446" x2="64.4998" y2="69.3846" gradientUnits="userSpaceOnUse">
<stop stop-color="#1C1C1C"/>
<stop offset="1" stop-color="#828282"/>
</linearGradient>
<linearGradient id="paint15_linear_853_3201" x1="34.5312" y1="32.2295" x2="34.934" y2="23.8119" gradientUnits="userSpaceOnUse">
<stop stop-color="#999999"/>
<stop offset="0.871633" stop-color="#1A1818"/>
</linearGradient>
<linearGradient id="paint16_linear_853_3201" x1="31.861" y1="26.5812" x2="31.861" y2="32.7211" gradientUnits="userSpaceOnUse">
<stop stop-color="#1C1C1C"/>
<stop offset="1" stop-color="#828282"/>
</linearGradient>
</defs>
</svg>
