<svg width="130" height="90" viewBox="0 0 130 90" fill="none" xmlns="http://www.w3.org/2000/svg">
<g clip-path="url(#clip0_853_3201)">
<path d="M104.33 8.99979L88.6629 24.9709L101.9 38.4675L72.1125 69.1418L58.434 55.1983L40.998 72.6622L54.8972 86.8306L89.607 79.0424L112.998 55.1983L119.998 24.9709L104.33 8.99979Z" fill="url(#paint0_linear_853_3201)" stroke="url(#paint1_linear_853_3201)" stroke-width="3"/>
<path d="M82.5869 13.9105L73.7964 22.1484L69.0234 17.3754L64.2505 12.6024L46.9264 29.9265L56.4723 39.4725L47.6335 48.3113L77.5869 41.9105L82.5869 13.9105Z" fill="url(#paint2_linear_853_3201)" stroke="url(#paint3_linear_853_3201)" stroke-width="3"/>
<path d="M22.5869 42.2657L31.3774 34.0279L36.1504 38.8008L40.9234 43.5738L58.2475 26.2497L48.7015 16.7037L57.5404 7.86491L28.0869 13.5886L22.5869 42.2657Z" fill="url(#paint4_linear_853_3201)" stroke="url(#paint5_linear_853_3201)" stroke-width="3"/>
</g>
<defs>
<linearGradient id="paint0_linear_853_3201" x1="96.2243" y1="80.7182" x2="106.715" y2="-23.1246" gradientUnits="userSpaceOnUse">
<stop stop-color="#999999"/>
<stop offset="0.871633" stop-color="#1A1818"/>
</linearGradient>
<linearGradient id="paint1_linear_853_3201" x1="80.498" y1="10.4878" x2="80.498" y2="86.8306" gradientUnits="userSpaceOnUse">
<stop stop-color="#1C1C1C"/>
<stop offset="1" stop-color="#828282"/>
</linearGradient>
<linearGradient id="paint2_linear_853_3201" x1="46.4617" y1="59.1958" x2="35.9054" y2="25.9633" gradientUnits="userSpaceOnUse">
<stop stop-color="#FEFEFE"/>
<stop offset="1" stop-color="#FFA6A6"/>
</linearGradient>
<linearGradient id="paint3_linear_853_3201" x1="83.4258" y1="14.7494" x2="48.7487" y2="49.4265" gradientUnits="userSpaceOnUse">
<stop stop-color="#DB0E0E"/>
<stop offset="1" stop-color="#ECA0A0"/>
</linearGradient>
<linearGradient id="paint4_linear_853_3201" x1="62.6754" y1="-11.4296" x2="28.3219" y2="45.1288" gradientUnits="userSpaceOnUse">
<stop offset="0.128367" stop-color="#1A1818"/>
<stop offset="1" stop-color="#999999"/>
</linearGradient>
<linearGradient id="paint5_linear_853_3201" x1="22.3667" y1="40.7196" x2="56.3809" y2="6.70544" gradientUnits="userSpaceOnUse">
<stop stop-color="#1C1C1C"/>
<stop offset="1" stop-color="#828282"/>
</linearGradient>
<clipPath id="clip0_853_3201">
<rect width="130" height="90" fill="white"/>
</clipPath>
</defs>
</svg>
