<svg width="412" height="90" viewBox="0 0 412 90" fill="none" xmlns="http://www.w3.org/2000/svg">
<g clip-path="url(#clip0_702_1061)">
<mask id="mask0_702_1061" style="mask-type:luminance" maskUnits="userSpaceOnUse" x="0" y="0" width="412" height="90">
<path d="M412 1.52588e-05H0V90H412V1.52588e-05Z" fill="white"/>
</mask>
<g mask="url(#mask0_702_1061)">
<mask id="mask1_702_1061" style="mask-type:luminance" maskUnits="userSpaceOnUse" x="-49" y="-63" width="500" height="215">
<path d="M450.798 -62.1H-48.0359V151.701H450.798V-62.1Z" fill="white"/>
</mask>
<g mask="url(#mask1_702_1061)">
<path d="M5.07616 49.2634V56.2546H0.013916V44.8191C0.013916 40.5835 2.54504 38.4634 7.60728 38.4634H20.2583L20.2721 42.2768H7.60728C5.92141 42.2768 5.07616 43.1258 5.07616 44.8191V45.4546H20.2583V49.268H5.07616V49.2634Z" fill="white"/>
</g>
<mask id="mask2_702_1061" style="mask-type:luminance" maskUnits="userSpaceOnUse" x="-49" y="-63" width="500" height="215">
<path d="M450.798 -62.1H-48.0359V151.701H450.798V-62.1Z" fill="white"/>
</mask>
<g mask="url(#mask2_702_1061)">
<path d="M37.3386 45.45C38.6041 45.45 39.2369 45.0278 39.2369 44.1789V43.5433C39.2369 42.6943 38.6041 42.2722 37.3386 42.2722H21.5237L21.5375 38.4588H37.3386C41.9759 38.4588 44.2992 40.1521 44.2992 43.5433V44.1789C44.2992 47.134 42.5348 48.7995 39.0106 49.1753L50.627 61.3346H44.2992L32.7613 49.2634H26.5859V56.2546H21.5237V45.4546H37.3386V45.45Z" fill="white"/>
</g>
<mask id="mask3_702_1061" style="mask-type:luminance" maskUnits="userSpaceOnUse" x="-49" y="-63" width="500" height="215">
<path d="M450.798 -62.1H-48.0359V151.701H450.798V-62.1Z" fill="white"/>
</mask>
<g mask="url(#mask3_702_1061)">
<path d="M50.6269 38.4588H45.5647V56.25H50.6269V38.4588Z" fill="white"/>
</g>
<mask id="mask4_702_1061" style="mask-type:luminance" maskUnits="userSpaceOnUse" x="-49" y="-63" width="500" height="215">
<path d="M450.798 -62.1H-48.0359V151.701H450.798V-62.1Z" fill="white"/>
</mask>
<g mask="url(#mask4_702_1061)">
<path d="M56.9502 49.2634V49.899C56.9502 51.5923 57.7954 52.4412 59.4813 52.4412H72.1323V56.2546H59.4813C54.4191 56.2546 51.8879 54.1345 51.8879 49.899V44.8144C51.8879 40.5789 54.4191 38.4588 59.4813 38.4588H72.1323L72.1462 42.2722H59.4813C57.7954 42.2722 56.9502 43.1211 56.9502 44.8144V45.45H72.1323V49.2634H56.9502Z" fill="white"/>
</g>
<mask id="mask5_702_1061" style="mask-type:luminance" maskUnits="userSpaceOnUse" x="-49" y="-63" width="500" height="215">
<path d="M450.798 -62.1H-48.0359V151.701H450.798V-62.1Z" fill="white"/>
</mask>
<g mask="url(#mask5_702_1061)">
<path d="M78.4602 44.1789V56.25H73.3979V44.1789C73.3979 40.3655 75.5087 38.4588 79.7257 38.4588C81.5825 38.4588 83.0559 39.3077 84.1552 41.001L90.483 50.5299C90.9033 50.9521 91.3098 51.1655 91.6978 51.1655C92.155 51.1655 92.3814 50.9521 92.3814 50.5299V38.4588H97.4436V50.5299C97.4436 54.3433 95.3328 56.25 91.1158 56.25C89.259 56.25 87.7856 55.401 86.6863 53.7077L80.3585 44.1789C79.9475 43.7567 79.541 43.5433 79.1438 43.5433C78.6865 43.5433 78.4602 43.7567 78.4602 44.1789Z" fill="white"/>
</g>
<mask id="mask6_702_1061" style="mask-type:luminance" maskUnits="userSpaceOnUse" x="-49" y="-63" width="500" height="215">
<path d="M450.798 -62.1H-48.0359V151.701H450.798V-62.1Z" fill="white"/>
</mask>
<g mask="url(#mask6_702_1061)">
<path d="M98.7046 42.2722V38.4588H113.887C118.949 38.4588 121.48 40.5789 121.48 44.8144V51.1701C121.48 54.5567 118.949 56.2546 113.887 56.2546H98.7046V46.0856H103.767V52.4412H113.887C115.573 52.4412 116.418 51.5923 116.418 49.899V44.8144C116.418 43.1211 115.573 42.2722 113.887 42.2722H98.7046Z" fill="white"/>
</g>
<mask id="mask7_702_1061" style="mask-type:luminance" maskUnits="userSpaceOnUse" x="-49" y="-63" width="500" height="215">
<path d="M450.798 -62.1H-48.0359V151.701H450.798V-62.1Z" fill="white"/>
</mask>
<g mask="url(#mask7_702_1061)">
<path d="M127.803 49.8943C127.803 51.5876 128.648 52.4366 130.334 52.4366H142.985V56.25H130.334C125.272 56.25 122.741 54.1299 122.741 49.8943V38.4588H127.803V49.8943Z" fill="white"/>
</g>
<mask id="mask8_702_1061" style="mask-type:luminance" maskUnits="userSpaceOnUse" x="-49" y="-63" width="500" height="215">
<path d="M450.798 -62.1H-48.0359V151.701H450.798V-62.1Z" fill="white"/>
</mask>
<g mask="url(#mask8_702_1061)">
<path d="M146.034 47.9412L135.914 38.4588H142.237L148.565 44.3923L154.893 38.4588H161.216L151.096 47.9412V56.25H146.034V47.9412Z" fill="white"/>
</g>
<mask id="mask9_702_1061" style="mask-type:luminance" maskUnits="userSpaceOnUse" x="-49" y="-63" width="500" height="215">
<path d="M450.798 -62.1H-48.0359V151.701H450.798V-62.1Z" fill="white"/>
</mask>
<g mask="url(#mask9_702_1061)">
<path d="M182.726 38.4588C185.257 38.4588 186.943 40.1521 187.788 43.5433L189.686 49.7181L191.585 43.5433C192.43 40.1567 194.116 38.4588 196.647 38.4588C200.864 38.4588 202.975 40.5789 202.975 44.8144V56.25H197.912V44.1789C197.912 43.7567 197.7 43.5433 197.28 43.5433C196.859 43.5433 196.434 44.3923 196.014 46.0856L193.483 53.7124C193.063 55.4057 192.005 56.2546 190.319 56.2546H189.054C187.368 56.2546 186.315 55.4057 185.89 53.7124L183.359 46.0856C182.938 44.3923 182.513 43.5433 182.093 43.5433C181.673 43.5433 181.46 43.7567 181.46 44.1789V56.25H176.398V44.8144C176.398 40.5789 178.509 38.4588 182.726 38.4588Z" fill="white"/>
</g>
<mask id="mask10_702_1061" style="mask-type:luminance" maskUnits="userSpaceOnUse" x="-49" y="-63" width="500" height="215">
<path d="M450.798 -62.1H-48.0359V151.701H450.798V-62.1Z" fill="white"/>
</mask>
<g mask="url(#mask10_702_1061)">
<path d="M219.418 42.2722H211.824C210.138 42.2722 209.293 43.1211 209.293 44.8144V49.899C209.293 51.5923 210.138 52.4412 211.824 52.4412H219.418C221.104 52.4412 221.949 51.5923 221.949 49.899V44.8144C221.949 43.1211 221.104 42.2722 219.418 42.2722ZM211.824 38.4588H219.418C224.48 38.4588 227.011 40.5789 227.011 44.8144V51.1701C227.011 54.5567 224.48 56.2546 219.418 56.2546H211.824C206.762 56.2546 204.231 54.1345 204.231 49.899V44.8144C204.236 40.5789 206.762 38.4588 211.824 38.4588Z" fill="white"/>
</g>
<mask id="mask11_702_1061" style="mask-type:luminance" maskUnits="userSpaceOnUse" x="-49" y="-63" width="500" height="215">
<path d="M450.798 -62.1H-48.0359V151.701H450.798V-62.1Z" fill="white"/>
</mask>
<g mask="url(#mask11_702_1061)">
<path d="M242.189 42.2722V56.25H237.131V42.2722H228.272V38.4588H251.047V42.2722H242.189Z" fill="white"/>
</g>
<mask id="mask12_702_1061" style="mask-type:luminance" maskUnits="userSpaceOnUse" x="-49" y="-63" width="500" height="215">
<path d="M450.798 -62.1H-48.0359V151.701H450.798V-62.1Z" fill="white"/>
</mask>
<g mask="url(#mask12_702_1061)">
<path d="M266.28 42.2722H258.687C257.001 42.2722 256.156 43.1211 256.156 44.8144V49.899C256.156 51.5923 257.001 52.4412 258.687 52.4412H266.28C267.966 52.4412 268.812 51.5923 268.812 49.899V44.8144C268.812 43.1211 267.966 42.2722 266.28 42.2722ZM258.687 38.4588H266.28C271.343 38.4588 273.874 40.5789 273.874 44.8144V51.1701C273.874 54.5567 271.343 56.2546 266.28 56.2546H258.687C253.625 56.2546 251.094 54.1345 251.094 49.899V44.8144C251.098 40.5789 253.629 38.4588 258.687 38.4588Z" fill="white"/>
</g>
<mask id="mask13_702_1061" style="mask-type:luminance" maskUnits="userSpaceOnUse" x="-49" y="-63" width="500" height="215">
<path d="M450.798 -62.1H-48.0359V151.701H450.798V-62.1Z" fill="white"/>
</mask>
<g mask="url(#mask13_702_1061)">
<path d="M290.95 45.45C292.215 45.45 292.848 45.0278 292.848 44.1789V43.5433C292.848 42.6943 292.215 42.2722 290.95 42.2722H275.135L275.149 38.4588H290.95C295.587 38.4588 297.91 40.1521 297.91 43.5433V44.1789C297.91 47.134 296.146 48.7995 292.622 49.1753L304.238 61.3346H297.91L286.372 49.2634H280.197V56.2546H275.135V45.4546H290.95V45.45Z" fill="white"/>
</g>
<mask id="mask14_702_1061" style="mask-type:luminance" maskUnits="userSpaceOnUse" x="-49" y="-63" width="500" height="215">
<path d="M450.798 -62.1H-48.0359V151.701H450.798V-62.1Z" fill="white"/>
</mask>
<g mask="url(#mask14_702_1061)">
<path d="M306.132 49.2634C301.494 49.2634 299.171 47.5701 299.171 44.1789V43.5433C299.171 40.1567 301.49 38.4588 306.132 38.4588H321.947V42.2722H306.132C304.866 42.2722 304.233 42.6943 304.233 43.5433V44.1789C304.233 45.0278 304.866 45.45 306.132 45.45H314.986C319.623 45.45 321.947 47.1433 321.947 50.5345V51.1701C321.947 54.5567 319.628 56.2546 314.986 56.2546H299.185L299.171 52.4412H314.986C316.252 52.4412 316.884 52.0191 316.884 51.1701V50.5345C316.884 49.6856 316.252 49.2634 314.986 49.2634H306.132Z" fill="white"/>
</g>
<mask id="mask15_702_1061" style="mask-type:luminance" maskUnits="userSpaceOnUse" x="-49" y="-63" width="500" height="215">
<path d="M450.798 -62.1H-48.0359V151.701H450.798V-62.1Z" fill="white"/>
</mask>
<g mask="url(#mask15_702_1061)">
<path d="M403.437 44.8005L367.17 8.37372L364.394 11.1619L367.165 13.95L367.17 13.9454L373.41 20.2175L397.894 44.8005L367.17 75.6603L342.681 51.0634L346.819 46.9067L352.851 52.9655L365.294 65.4634L365.29 65.4681L368.278 68.4696L368.283 68.4603L368.287 68.4696L371.059 65.6815L371.054 65.6768L377.082 59.6227L374.093 56.6258L355.59 38.0459L360.163 33.4577L366.186 39.5119L378.62 51.9959L378.611 52.0098L381.599 55.016L381.608 55.0021L381.622 55.016L384.398 52.2279L384.384 52.2186L390.453 46.1181L387.469 43.1165L387.465 43.1211L360.029 15.5598L360.006 15.583L360.001 15.5737L330.903 44.8005L333.683 47.598L336.454 44.8098L336.45 44.8005L360.015 21.1315L360.02 21.1361L360.029 21.1315L366.269 27.4036L384.689 45.9L381.396 49.2124L359.946 27.6681L359.304 28.3083L352.606 35.0397L349.826 37.8325L352.602 40.616L352.606 40.6114L358.847 46.8835L371.317 59.4139L368.07 62.6753L346.611 41.1217L346.607 41.1263L346.602 41.1217L339.692 48.0619L337.295 50.4742L336.921 50.85L367.17 81.2273L403.437 44.8005Z" fill="white"/>
</g>
</g>
</g>
<defs>
<clipPath id="clip0_702_1061">
<rect width="412" height="90" fill="white"/>
</clipPath>
</defs>
</svg>
