<svg width="133" height="134" viewBox="0 0 133 134" fill="none" xmlns="http://www.w3.org/2000/svg">
<path d="M133 67L66.5 0L61.41 5.12824L66.4915 10.2565L66.5 10.248L77.9419 21.7844L122.837 67L66.5 123.761L21.5964 78.5193L29.1848 70.8739L40.2455 82.0178L63.0615 105.005L63.053 105.014L68.5326 110.535L68.541 110.518L68.5495 110.535L73.631 105.406L73.6226 105.398L84.6749 94.2625L79.1953 88.7502L45.2678 54.5761L53.6523 46.1372L64.6961 57.2725L87.4951 80.2345L87.4782 80.26L92.9577 85.7893L92.9747 85.7637L93 85.7893L98.09 80.6611L98.0646 80.644L109.193 69.4233L103.722 63.9026L103.714 63.9111L53.4066 13.2174L53.3643 13.2601L53.3558 13.243L0 67L5.09846 72.1453L10.18 67.0171L10.1715 67L53.3813 23.4654L53.3897 23.4739L53.4066 23.4654L64.8485 35.0018L98.6236 69.0223L92.5851 75.1147L53.2542 35.4882L52.077 36.6657L39.7967 49.0469L34.6982 54.1836L39.7882 59.3034L39.7967 59.2948L51.2385 70.8312L74.1053 93.8785L68.1515 99.8771L28.8037 60.2334L28.7952 60.242L28.7867 60.2334L16.1169 72.9986L11.7214 77.4357L11.0354 78.1268L66.5 134L133 67Z" fill="#DB0E0E"/>
</svg>
